<svg id="flat" height="20" viewBox="0 0 340 340" width="20" xmlns="http://www.w3.org/2000/svg"><path d="m322.633 46.674a7.521 7.521 0 0 1 -4.678 6.957 31 31 0 0 1 -10.845 1.849c-6.013.224-11.476-2.395-17.074-4.451-12.035-4.419-19.573-.412-19.573-.412v-39.017a85.194 85.194 0 0 1 19.573 2.643c5.757 1.557 11.064 4.679 17.074 4.457 3.839-.143 8.062-.409 12.11-2.421a2.39 2.39 0 0 1 3.413 2.176z" fill="#ff8080"/><ellipse cx="266.463" cy="89.63" fill="#ff8080" rx="19.39" ry="11.507"/><circle cx="40.35" cy="305.411" fill="#d4ecff" r="22.982"/><circle cx="40.35" cy="193.541" fill="#cae7ff" r="16.251"/><circle cx="264.767" cy="264.516" fill="#86bbef" r="14.708"/><circle cx="163.374" cy="130.001" fill="#86bbef" r="13.694"/><g fill="#494151"><path d="m40.35 213.792a20.259 20.259 0 0 0 18.082-11.183l172.025 56.578a4 4 0 0 0 2.5-7.6l-172.424-56.709c.029-.444.068-.886.068-1.337a20.252 20.252 0 1 0 -20.251 20.251zm0-32.5a12.251 12.251 0 1 1 -12.25 12.249 12.265 12.265 0 0 1 12.25-12.251z"/><path d="m264.767 283.223a18.708 18.708 0 1 0 -7.092-36.009l-72.027-91.8a4 4 0 0 0 -6.294 4.939l71.746 91.435a18.677 18.677 0 0 0 13.672 31.435zm0-29.415a10.708 10.708 0 1 1 -10.708 10.708 10.721 10.721 0 0 1 10.708-10.708z"/><path d="m163.373 147.7a17.563 17.563 0 0 0 17.5-20.162l52.277-20.246a4 4 0 1 0 -2.889-7.46l-52.258 20.239a17.69 17.69 0 1 0 -14.63 27.629zm0-27.388a9.694 9.694 0 1 1 -9.693 9.688 9.706 9.706 0 0 1 9.693-9.693z"/><path d="m266.463 105.137c13.115 0 23.39-6.812 23.39-15.507 0-7.789-8.246-14.062-19.39-15.286v-57.4c3.824-1.124 11.488-2.638 17.617.8a36.676 36.676 0 0 0 19.179 4.956 35.783 35.783 0 0 0 11.374-1.819v27.931c-3.512 2.18-7.391 2.511-11.673 2.671a28.745 28.745 0 0 1 -14.97-3.944 24.1 24.1 0 0 0 -6.321-2.427 4 4 0 1 0 -1.814 7.792 16.085 16.085 0 0 1 4.225 1.615 36.654 36.654 0 0 0 19.179 4.958c4.62-.173 11.6-.433 17.884-5.494a4 4 0 0 0 1.49-3.115v-36.782a4 4 0 0 0 -6.51-3.115c-3.9 3.14-8.266 3.547-13.163 3.73a28.683 28.683 0 0 1 -14.97-3.944c-12.048-6.749-26.511-.6-27.122-.332a4 4 0 0 0 -2.4 3.668v64.068a4 4 0 0 0 4 4c.1 0 .2-.023.3-.03 8.658.089 15.094 4 15.094 7.5 0 3.544-6.581 7.507-15.39 7.507s-15.39-3.963-15.39-7.507c0-1.745 1.619-3.217 2.583-3.939a4 4 0 0 0 -4.8-6.4c-3.731 2.8-5.786 6.468-5.786 10.342-.006 8.691 10.269 15.503 23.384 15.503z"/><path d="m40.35 332.394a26.983 26.983 0 0 0 4-53.667v-52.382a4 4 0 0 0 -8 0v52.382a26.983 26.983 0 0 0 4 53.667zm0-45.965a18.983 18.983 0 1 1 -18.983 18.982 19 19 0 0 1 18.983-18.982z"/></g></svg>