<svg height="20" width="20" id="Layer_1" enable-background="new 0 0 512 512" viewBox="0 0 512 512" xmlns="http://www.w3.org/2000/svg" xmlns:xlink="http://www.w3.org/1999/xlink"><linearGradient id="SVGID_1_" gradientUnits="userSpaceOnUse" x1="256" x2="256" y1="10.008" y2="501.992"><stop offset="0" stop-color="#17a6d7"/><stop offset=".06173055" stop-color="#259adb"/><stop offset=".1856" stop-color="#3b87e2"/><stop offset=".2649" stop-color="#4380e4"/><stop offset="1" stop-color="#9735fd"/></linearGradient><path d="m498.4 209.8c-.4-3.1-2.6-5.6-5.6-6.4l-42.7-11.8c-3.1-9.3-6.9-18.4-11.3-27.3l21.8-38.5c1.5-2.7 1.3-6-.6-8.5-21.1-27.6-37.6-44.1-65.3-65.3-2.5-1.9-5.8-2.1-8.5-.6l-38.5 21.8c-8.9-4.4-18-8.2-27.3-11.3l-11.8-42.7c-.8-3-3.4-5.2-6.4-5.6-34.8-4.6-57.3-4.6-92.3 0-3.1.4-5.6 2.6-6.4 5.6l-11.8 42.7c-9.2 3.1-18.4 6.9-27.3 11.3l-38.5-21.8c-2.7-1.5-6.1-1.3-8.5.6-28.4 21.7-43.6 36.9-65.3 65.3-1.9 2.5-2.1 5.8-.6 8.5l21.8 38.5c-4.3 8.6-8.2 18.1-11.3 27.3l-42.7 11.8c-3 .8-5.2 3.4-5.6 6.4-4.8 36.2-4.8 56.1 0 92.3.4 3.1 2.6 5.6 5.6 6.4l42.7 11.8c3.1 9.4 6.9 18.5 11.3 27.3l-21.8 38.5c-1.5 2.7-1.3 6 .6 8.5 21.6 28.4 36.9 43.6 65.3 65.3 2.5 1.9 5.8 2.1 8.5.6l38.5-21.8c8.8 4.4 17.9 8.2 27.3 11.3l11.8 42.7c.8 3 3.4 5.2 6.4 5.6 18.1 2.5 32.1 3.7 46.1 3.7s28-1.2 46.1-3.6c3.1-.4 5.6-2.6 6.4-5.6l11.8-42.7c9.3-3.1 18.5-6.9 27.3-11.3l38.5 21.8c2.7 1.5 6 1.3 8.5-.6 27.7-21.2 44.2-37.6 65.3-65.3 1.9-2.5 2.1-5.8.6-8.5-4-7-8-14.1-11.9-21.1-3.3-5.8-6.6-11.6-9.9-17.4 4.4-8.7 8.1-17.8 11.3-27.3l42.7-11.8c3-.8 5.2-3.4 5.6-6.4 5-36.4 5-56.2.1-92.4zm-14.6 85.2-41.8 11.6c-2.5.7-4.5 2.7-5.3 5.2-3.5 11.4-8.1 22.3-13.5 32.5-1.2 2.3-1.2 5.1.1 7.4 4 7 8 14.1 11.9 21.1 3.1 5.5 6.3 11.1 9.4 16.6-17.9 23-32.2 37.3-55.2 55.2l-37.7-21.3c-2.3-1.3-5.1-1.3-7.4-.1-10.4 5.5-21.3 10-32.5 13.5-2.5.8-4.5 2.8-5.2 5.3l-11.6 41.7c-30.1 3.8-47.9 3.8-78.1 0l-11.6-41.8c-.7-2.5-2.7-4.5-5.2-5.3-11.2-3.5-22.2-8-32.5-13.5-2.3-1.2-5.1-1.2-7.4.1l-37.7 21.3c-23.5-18.2-37-31.7-55.2-55.2l21.3-37.7c1.3-2.3 1.3-5.1.1-7.4-5.4-10.3-10-21.2-13.4-32.5-.8-2.5-2.8-4.5-5.3-5.2l-41.7-11.5c-3.8-30.2-3.8-47.9 0-78.1l41.7-11.6c2.5-.7 4.6-2.7 5.3-5.2 3.4-11 8.1-22.5 13.4-32.5 1.2-2.3 1.2-5.1-.1-7.4l-21.3-37.7c18.3-23.5 31.8-36.9 55.3-55.2l37.7 21.3c2.3 1.3 5.1 1.3 7.4.1 10.5-5.5 21.4-10.1 32.5-13.5 2.5-.8 4.5-2.8 5.2-5.3l11.6-41.7c29-3.6 49.3-3.6 78.1 0l11.6 41.8c.7 2.5 2.7 4.6 5.2 5.3 11.1 3.4 22 7.9 32.5 13.5 2.3 1.2 5.1 1.2 7.4-.1l37.7-21.3c23 17.9 37.4 32.3 55.2 55.2l-21.3 37.7c-1.3 2.3-1.3 5.1-.1 7.4 5.5 10.5 10 21.4 13.5 32.5.8 2.5 2.8 4.5 5.3 5.2l41.8 11.6c3.6 30 3.6 47.8-.1 78zm-227.8-179.8c-77.6 0-140.8 63.1-140.8 140.8 0 77.6 63.1 140.7 140.8 140.7 77.6 0 140.7-63.1 140.7-140.7s-63.1-140.8-140.7-140.8zm0 266.1c-69.1 0-125.3-56.2-125.3-125.2 0-69.1 56.2-125.3 125.3-125.3s125.2 56.2 125.2 125.3c.1 69-56.1 125.2-125.2 125.2z" fill="url(#SVGID_1_)"/></svg>