<?xml version="1.0" encoding="UTF-8" standalone="no"?>
<!-- Created with Inkscape (http://www.inkscape.org/) -->

<svg
   version="1.1"
   id="svg5502"
   xml:space="preserve"
   width="20"
   height="20"
   viewBox="0 0 682.66669 682.66669"
   xmlns="http://www.w3.org/2000/svg"
   xmlns:svg="http://www.w3.org/2000/svg"><defs
     id="defs5506"><clipPath
       clipPathUnits="userSpaceOnUse"
       id="clipPath5516"><path
         d="M 0,512 H 512 V 0 H 0 Z"
         id="path5514" /></clipPath></defs><g
     id="g5508"
     transform="matrix(1.3333333,0,0,-1.3333333,0,682.66667)"><g
       id="g5510"><g
         id="g5512"
         clip-path="url(#clipPath5516)"><g
           id="g5518"
           transform="translate(386.8721,502)"><path
             d="m 0,0 h -328.597 c -20.513,0 -37.275,-16.753 -37.275,-37.19 v -26.618 c 0,-6.972 5.71,-12.671 12.7,-12.671 h 19.745 283.452 c 6.99,0 12.701,5.699 12.701,12.671 V -37.19 C -37.274,-16.725 -20.513,0 0,0"
             style="fill:#e6dfe1;fill-opacity:1;fill-rule:evenodd;stroke:none"
             id="path5520" /></g><g
           id="g5522"
           transform="translate(160.354,369.7646)"><path
             d="m 0,0 c 5.114,0 9.291,-4.167 9.291,-9.241 v -38.863 c 0,-5.074 -4.177,-9.241 -9.291,-9.241 h -38.951 c -5.085,0 -9.262,4.167 -9.262,9.241 v 38.863 c 0,5.074 4.177,9.241 9.262,9.241 z m 176.543,55.757 h -283.452 v -385.622 c 0,-6.974 5.71,-12.671 12.7,-12.671 h 267.627 c -10.255,7.03 -20.142,16.327 -29.291,28.062 l -69.407,89.093 c -22.217,28.517 12.813,66.217 37.331,39.968 L 136.4,-211.52 c 19.66,-21.061 16.023,-8.22 16.023,21.572 v 144.509 c 0,31.351 44.548,31.351 44.548,0 v -87.505 c 0,31.351 44.548,31.351 44.548,0 v -18.935 c 0,15.675 11.137,23.527 22.273,23.527 V 55.757 95.045 c 0,20.466 -16.761,37.19 -37.274,37.19 -20.513,0 -37.274,-16.724 -37.274,-37.19 V 68.428 c 0,-6.973 -5.711,-12.671 -12.701,-12.671"
             style="fill:#ffffff;fill-opacity:1;fill-rule:evenodd;stroke:none"
             id="path5524" /></g><g
           id="g5526"
           transform="translate(160.354,369.7646)"><path
             d="m 0,0 h -38.951 c -5.085,0 -9.262,-4.167 -9.262,-9.241 v -38.863 c 0,-5.074 4.177,-9.241 9.262,-9.241 H 0 c 5.114,0 9.291,4.167 9.291,9.241 V -9.241 C 9.291,-4.167 5.114,0 0,0"
             style="fill:#a0c8ff;fill-opacity:1;fill-rule:evenodd;stroke:none"
             id="path5528" /></g><g
           id="g5530"
           transform="translate(312.7773,324.3252)"><path
             d="m 0,0 v -144.509 c 0,-29.792 3.637,-42.633 -16.023,-21.571 l -24.349,26.106 c -24.518,26.249 -59.548,-11.451 -37.331,-39.967 l 69.407,-89.093 c 9.149,-11.736 19.035,-21.032 29.291,-28.063 69.862,-47.877 157.821,8.844 157.225,110.721 v 61.029 c 0,31.351 -44.576,31.351 -44.576,0 v 18.908 c 0,15.674 -11.137,23.527 -22.275,23.527 -11.137,0 -22.273,-7.853 -22.273,-23.527 v 18.934 c 0,31.352 -44.548,31.352 -44.548,0 V 0 C 44.548,31.352 0,31.352 0,0"
             style="fill:#ffdcd5;fill-opacity:1;fill-rule:evenodd;stroke:none"
             id="path5532" /></g><g
           id="g5534"
           transform="translate(155.0698,425.5215)"><path
             d="m 0,0 h -121.37 c -6.989,0 -12.7,5.698 -12.7,12.671 v 26.617 c 0,20.438 16.762,37.191 37.275,37.191 h 328.597 m 37.275,-260.587 V 0 39.288 c 0,20.466 -16.762,37.191 -37.275,37.191 -20.512,0 -37.274,-16.725 -37.274,-37.191 V 12.671 C 194.528,5.698 188.817,0 181.828,0 H 90.005 m -191.63,0 v -385.622 c 0,-6.974 5.71,-12.671 12.7,-12.671 h 267.628"
             style="fill:none;stroke:#000000;stroke-width:20.148;stroke-linecap:round;stroke-linejoin:round;stroke-miterlimit:10;stroke-dasharray:none;stroke-opacity:1"
             id="path5536" /></g><g
           id="g5538"
           transform="translate(121.4033,369.7646)"><path
             d="m 0,0 h 38.951 c 5.114,0 9.29,-4.167 9.29,-9.241 v -38.863 c 0,-5.074 -4.176,-9.241 -9.29,-9.241 H 0 c -5.085,0 -9.262,4.167 -9.262,9.241 V -9.241 C -9.262,-4.167 -5.085,0 0,0 Z"
             style="fill:none;stroke:#000000;stroke-width:20.148;stroke-linecap:round;stroke-linejoin:round;stroke-miterlimit:10;stroke-dasharray:none;stroke-opacity:1"
             id="path5540" /></g><g
           id="g5542"
           transform="translate(357.3252,236.8203)"><path
             d="m 0,0 c 0,31.352 44.548,31.352 44.548,0 v -55.672 m 44.548,17.83 c 0,31.351 44.576,31.351 44.576,0 v -61.029 c 0.682,-116.844 -115.12,-174.274 -186.516,-82.658 l -69.407,89.092 c -22.217,28.517 12.813,66.217 37.331,39.968 l 24.349,-26.106 c 19.66,-21.062 16.023,-8.221 16.023,21.571 V 87.505 c 0,31.351 44.548,31.351 44.548,0 L 0,-55.672 m 44.548,36.737 c 0,31.379 44.548,31.351 44.548,0 v -36.737"
             style="fill:none;stroke:#000000;stroke-width:20.148;stroke-linecap:round;stroke-linejoin:round;stroke-miterlimit:10;stroke-dasharray:none;stroke-opacity:1"
             id="path5544" /></g><g
           id="g5546"
           transform="translate(211.7207,369.7646)"><path
             d="M 0,0 H 80.032"
             style="fill:none;stroke:#000000;stroke-width:20.148;stroke-linecap:round;stroke-linejoin:round;stroke-miterlimit:10;stroke-dasharray:none;stroke-opacity:1"
             id="path5548" /></g><g
           id="g5550"
           transform="translate(211.7207,312.4199)"><path
             d="M 0,0 H 63.043"
             style="fill:none;stroke:#000000;stroke-width:20.148;stroke-linecap:round;stroke-linejoin:round;stroke-miterlimit:10;stroke-dasharray:none;stroke-opacity:1"
             id="path5552" /></g><g
           id="g5554"
           transform="translate(112.1411,255.0479)"><path
             d="M 0,0 H 152.736"
             style="fill:none;stroke:#000000;stroke-width:20.148;stroke-linecap:round;stroke-linejoin:round;stroke-miterlimit:10;stroke-dasharray:none;stroke-opacity:1"
             id="path5556" /></g><g
           id="g5558"
           transform="translate(112.1411,197.7031)"><path
             d="M 0,0 H 82.391"
             style="fill:none;stroke:#000000;stroke-width:20.148;stroke-linecap:round;stroke-linejoin:round;stroke-miterlimit:10;stroke-dasharray:none;stroke-opacity:1"
             id="path5560" /></g><g
           id="g5562"
           transform="translate(112.1411,140.3301)"><path
             d="M 0,0 H 72.561"
             style="fill:none;stroke:#000000;stroke-width:20.148;stroke-linecap:round;stroke-linejoin:round;stroke-miterlimit:10;stroke-dasharray:none;stroke-opacity:1"
             id="path5564" /></g><g
           id="g5566"
           transform="translate(112.1411,82.9854)"><path
             d="M 0,0 H 106.455"
             style="fill:none;stroke:#000000;stroke-width:20.148;stroke-linecap:round;stroke-linejoin:round;stroke-miterlimit:10;stroke-dasharray:none;stroke-opacity:1"
             id="path5568" /></g><g
           id="g5570"
           transform="translate(200.1289,425.5215)"><path
             d="M 0,0 H -0.057"
             style="fill:none;stroke:#000000;stroke-width:20.148;stroke-linecap:round;stroke-linejoin:round;stroke-miterlimit:10;stroke-dasharray:none;stroke-opacity:1"
             id="path5572" /></g></g></g></g></svg>
