<svg id="Capa_1" enable-background="new 0 0 512 512" height="20" viewBox="0 0 512 512" width="20" xmlns="http://www.w3.org/2000/svg"><g><path d="m7.5 117.944v357.67c0 8.328 6.751 15.08 15.08 15.08h466.84c8.328 0 15.08-6.751 15.08-15.08v-357.67z" fill="#f1f4f6"/><g fill="#d0e2e7"><path d="m75.453 76.528h-25.461c-.594 0-1.075-.481-1.075-1.075v-53.072c0-.594.481-1.075 1.075-1.075h25.461c.594 0 1.075.481 1.075 1.075v53.072c0 .593-.482 1.075-1.075 1.075z"/><path d="m172.092 76.528h-25.461c-.594 0-1.075-.481-1.075-1.075v-53.072c0-.594.481-1.075 1.075-1.075h25.461c.594 0 1.075.481 1.075 1.075v53.072c0 .593-.482 1.075-1.075 1.075z"/><path d="m268.73 76.528h-25.46c-.594 0-1.075-.481-1.075-1.075v-53.072c0-.594.481-1.075 1.075-1.075h25.461c.594 0 1.075.481 1.075 1.075v53.072c0 .593-.482 1.075-1.076 1.075z"/><path d="m365.369 76.528h-25.461c-.594 0-1.075-.481-1.075-1.075v-53.072c0-.594.481-1.075 1.075-1.075h25.461c.594 0 1.075.481 1.075 1.075v53.072c.001.593-.481 1.075-1.075 1.075z"/><path d="m462.008 76.528h-25.461c-.594 0-1.075-.481-1.075-1.075v-53.072c0-.594.481-1.075 1.075-1.075h25.461c.594 0 1.075.481 1.075 1.075v53.072c0 .593-.481 1.075-1.075 1.075z"/></g><path d="m489.42 48.917h-26.337v26.536c0 .594-.481 1.075-1.075 1.075h-25.461c-.594 0-1.075-.481-1.075-1.075v-26.536h-69.028v26.536c0 .594-.481 1.075-1.075 1.075h-25.461c-.594 0-1.075-.481-1.075-1.075v-26.536h-69.028v26.536c0 .594-.481 1.075-1.075 1.075h-25.46c-.594 0-1.075-.481-1.075-1.075v-26.536h-69.028v26.536c0 .594-.481 1.075-1.075 1.075h-25.461c-.594 0-1.075-.481-1.075-1.075v-26.536h-69.028v26.536c0 .594-.481 1.075-1.075 1.075h-25.461c-.594 0-1.075-.481-1.075-1.075v-26.536h-26.337c-8.328 0-15.08 6.751-15.08 15.08v53.948h497v-53.948c0-8.329-6.751-15.08-15.08-15.08z" fill="#dd636e"/><path d="m464.499 117.944v276.43c0 42.15-34.169 76.319-76.319 76.319h-380.68v4.921c0 8.328 6.751 15.08 15.08 15.08h466.84c8.328 0 15.08-6.751 15.08-15.08v-357.67z" fill="#dfeaef"/><path d="m130.67 200.778h-94.465c-.599 0-1.085-.486-1.085-1.085v-39.244c0-.599.486-1.085 1.085-1.085h94.464c.599 0 1.085.486 1.085 1.085v39.244c.001.599-.485 1.085-1.084 1.085z" fill="#9bd069"/><path d="m172.085 242.193h-108.27c-.599 0-1.085-.486-1.085-1.085v-39.244c0-.599.486-1.085 1.085-1.085h108.269c.599 0 1.085.486 1.085 1.085v39.244c.001.599-.485 1.085-1.084 1.085z" fill="#8bc852"/><path d="m213.5 283.608h-122.075c-.599 0-1.085-.486-1.085-1.085v-39.244c0-.599.486-1.085 1.085-1.085h122.075c.599 0 1.085.486 1.085 1.085v39.244c0 .599-.486 1.085-1.085 1.085z" fill="#9bd069"/><path d="m379.16 325.023h-164.575v-40.33c0-.599.486-1.085 1.085-1.085h163.49c.599 0 1.085.486 1.085 1.085v39.244c0 .6-.486 1.086-1.085 1.086z" fill="#4073c8"/><path d="m296.33 366.438h-80.66c-.599 0-1.085-.486-1.085-1.085v-40.33h82.83v40.33c0 .599-.486 1.085-1.085 1.085z" fill="#3b66c1"/><path d="m463.075 407.853h-95.55c-.599 0-1.085-.486-1.085-1.085v-39.244c0-.599.486-1.085 1.085-1.085h94.464c.599 0 1.085.486 1.085 1.085v40.329z" fill="#e28424"/><path d="m461.99 449.268h-66.854c-.599 0-1.085-.486-1.085-1.085v-40.33h69.025v40.33c-.001.599-.487 1.085-1.086 1.085z" fill="#dd6938"/><path d="m463.075 448.182v-39.064c-3.056 15.612-10.871 29.519-21.873 40.149h20.788c.599.001 1.085-.485 1.085-1.085z" fill="#dd542e"/><path d="m489.42 41.417h-18.837v-19.037c0-4.729-3.847-8.575-8.575-8.575h-25.46c-4.729 0-8.575 3.847-8.575 8.575v19.036h-54.028v-19.036c0-4.729-3.847-8.575-8.575-8.575h-25.461c-4.729 0-8.575 3.847-8.575 8.575v19.036h-54.027v-19.036c0-4.729-3.847-8.575-8.575-8.575h-25.462c-4.729 0-8.575 3.847-8.575 8.575v19.036h-54.027v-19.036c0-4.729-3.847-8.575-8.575-8.575h-25.461c-4.729 0-8.575 3.847-8.575 8.575v19.036h-54.029v-19.036c0-4.729-3.847-8.575-8.575-8.575h-25.46c-4.729 0-8.575 3.847-8.575 8.575v19.036h-18.838c-12.451.001-22.58 10.129-22.58 22.581v411.618c0 12.45 10.129 22.58 22.58 22.58h101.784c4.142 0 7.5-3.357 7.5-7.5s-3.358-7.5-7.5-7.5h-26.519v-192.087h67.83v192.087h-6.31c-4.142 0-7.5 3.357-7.5 7.5s3.358 7.5 7.5 7.5h330.055c12.451 0 22.58-10.13 22.58-22.58v-411.618c0-12.452-10.129-22.58-22.58-22.58zm-46.447-12.612h12.61v40.223h-12.61zm-96.64 0h12.611v40.223h-12.611zm-96.639 0h12.611v40.223h-12.611zm-96.638 0h12.611v40.223h-12.611zm-96.639 0h12.611v40.223h-12.611zm-33.837 27.612h18.837v19.036c0 4.729 3.847 8.575 8.575 8.575h25.46c4.729 0 8.575-3.847 8.575-8.575v-19.036h54.028v19.036c0 4.729 3.847 8.575 8.575 8.575h25.461c4.729 0 8.575-3.847 8.575-8.575v-19.036h54.027v19.036c0 4.729 3.847 8.575 8.575 8.575h25.461c4.729 0 8.575-3.847 8.575-8.575v-19.036h54.027v19.036c0 4.729 3.847 8.575 8.575 8.575h25.461c4.729 0 8.575-3.847 8.575-8.575v-19.036h54.028v19.036c0 4.729 3.847 8.575 8.575 8.575h25.46c4.729 0 8.575-3.847 8.575-8.575v-19.036h18.837c4.18 0 7.58 3.4 7.58 7.58v46.448h-355.133c-4.142 0-7.5 3.357-7.5 7.5s3.358 7.5 7.5 7.5h23.811v67.833h-26.42v-32.83c0-4.733-3.851-8.585-8.585-8.585h-32.825v-26.418h9.018c4.142 0 7.5-3.357 7.5-7.5s-3.358-7.5-7.5-7.5h-91.863v-46.448c0-4.18 3.4-7.58 7.58-7.58zm378.97 385.351v-26.415h54.025v26.415c-11.719 0 5.149 0-54.025 0zm54.025-41.415h-81.635v-26.415h81.635zm-88.05-41.415c-4.733 0-8.585 3.852-8.585 8.585v39.244c0 4.734 3.852 8.586 8.585 8.586h19.024v32.829c0 4.734 3.852 8.586 8.586 8.586h19.029v26.427h-67.83v-150.672h32.825c4.733 0 8.585-3.852 8.585-8.586v-39.244c0-4.733-3.852-8.585-8.585-8.585h-32.825v-150.663h67.83v233.493zm-269.685-82.83v-26.415h109.245v26.415zm26.415-109.245v26.415h-81.635v-26.415zm-54.025 41.415h95.44v26.415h-95.44zm178.275-82.833v150.663h-26.42v-32.83c0-4.733-3.851-8.585-8.585-8.585h-32.825v-109.248zm65.456 150.663c-4.143 0-7.5 3.357-7.5 7.5s3.357 7.5 7.5 7.5h58.784v26.415h-150.66v-26.415h56.876c4.143 0 7.5-3.357 7.5-7.5s-3.357-7.5-7.5-7.5h-15.456v-150.663h67.83v150.663zm-91.876 56.415h67.83v26.415h-67.83zm74.245 41.415c4.733 0 8.585-3.852 8.585-8.586v-32.829h26.42v150.672h-67.83v-109.257zm-273.75 109.257c-4.18 0-7.58-3.4-7.58-7.58v-350.17h67.845v26.418h-46.64c-4.734 0-8.585 3.852-8.585 8.585v39.244c0 4.734 3.852 8.586 8.585 8.586h19.025v32.829c0 4.734 3.852 8.586 8.585 8.586h19.025c0 40.942.005 67.728.005 233.502zm158.095-192.087h26.41v74.244c0 4.734 3.852 8.586 8.585 8.586h32.834v109.257h-67.83v-192.087zm316.325 184.507c0 4.18-3.4 7.58-7.58 7.58h-60.255v-26.427h32.825c4.733 0 8.585-3.852 8.585-8.586v-80.659c0-4.733-3.852-8.585-8.585-8.585h-32.825v-233.493h67.835z"/></g></svg>