<svg height="20" viewBox="0 0 44 60" width="20" xmlns="http://www.w3.org/2000/svg"><g id="Page-1" fill="none" fill-rule="evenodd"><g id="007---Code-File" fill-rule="nonzero"><g id="Icons" transform="translate(1 1)"><path id="Shape" d="m42 8v48c-.0032948 1.1032019-.8967981 1.9967052-2 2h-38c-1.10320187-.0032948-1.9967052-.8967981-2-2v-54c.0032948-1.10320187.89679813-1.9967052 2-2h32v6c.0032948 1.10320187.8967981 1.9967052 2 2z" fill="#e8edfc"/><path id="Shape" d="m39 8v48c-.0032948 1.1032019-.8967981 1.9967052-2 2h3c1.1032019-.0032948 1.9967052-.8967981 2-2v-48z" fill="#cad9fc"/><path id="Shape" d="m33 8h3c-1.1032019-.0032948-1.9967052-.89679813-2-2v-6h-3v6c.0032948 1.10320187.8967981 1.9967052 2 2z" fill="#cad9fc"/><path id="Shape" d="m42 8h-6c-1.1032019-.0032948-1.9967052-.89679813-2-2v-6z" fill="#a4c2f7"/></g><g id="Icons_copy_2" fill="#fff" transform="translate(1 1)"><path id="Shape" d="m2 58h3c-1.10320187-.0032948-1.9967052-.8967981-2-2v-54c.0032948-1.10320187.89679813-1.9967052 2-2h-3c-1.10320187.0032948-1.9967052.89679813-2 2v54c.0032948 1.1032019.89679813 1.9967052 2 2z"/></g><g id="Icons_copy"><path id="Rectangle-path" d="m0 3h2v8h-2z" fill="#fff"/><g fill="#428dff"><circle id="Oval" cx="1" cy="7" r="1"/><path id="Shape" d="m3 60h38c1.6568542 0 3-1.3431458 3-3v-48c-.0000566-.26519481-.1054506-.51950727-.293-.707l-8-8c-.1874927-.18754937-.4418052-.29294336-.707-.293h-32c-1.65685425 0-3 1.34314575-3 3 0 .55228475.44771525 1 1 1s1-.44771525 1-1 .44771525-1 1-1h31v5c0 1.65685425 1.3431458 3 3 3h5v47c0 .5522847-.4477153 1-1 1h-38c-.55228475 0-1-.4477153-1-1v-46c0-.5522847-.44771525-1-1-1s-1 .4477153-1 1v46c0 1.6568542 1.34314575 3 3 3zm33-53v-3.586l4.586 4.586h-3.586c-.5522847 0-1-.44771525-1-1z"/><path id="Shape" d="m8.707 6.293c-.39049985-.39038194-1.02350015-.39038194-1.414 0l-3 3c-.39038194.39049985-.39038194 1.0235001 0 1.414l3 3c.39237889.3789722 1.01608478.3735524 1.40181858-.0121814.38573379-.3857338.39115363-1.0094397.01218142-1.4018186l-2.293-2.293 2.293-2.293c.39038194-.39049985.39038194-1.02350015 0-1.414z"/><path id="Shape" d="m19.293 13.707c.3904999.3903819 1.0235001.3903819 1.414 0l3-3c.3903819-.3904999.3903819-1.02350015 0-1.414l-3-3c-.3923789-.37897221-1.0160848-.37355237-1.4018186.01218142-.3857338.3857338-.3911536 1.00943969-.0121814 1.40181858l2.293 2.293-2.293 2.293c-.3903819.3904999-.3903819 1.0235001 0 1.414z"/><path id="Shape" d="m12.832 13.555 4-6c.1982824-.29724497.2229246-.67769305.0646441-.99803314-.1582805-.32034008-.4754371-.53190488-.832-.555-.3565629-.02309511-.6983617.14578817-.8966441.44303314l-4 6c-.306518.4595009-.1825009 1.080482.277 1.387s1.080482.1825009 1.387-.277z"/><path id="Shape" d="m5 19h2c.55228475 0 1-.4477153 1-1s-.44771525-1-1-1h-2c-.55228475 0-1 .4477153-1 1s.44771525 1 1 1z"/><path id="Shape" d="m5 24h2c.55228475 0 1-.4477153 1-1s-.44771525-1-1-1h-2c-.55228475 0-1 .4477153-1 1s.44771525 1 1 1z"/><path id="Shape" d="m5 29h2c.55228475 0 1-.4477153 1-1s-.44771525-1-1-1h-2c-.55228475 0-1 .4477153-1 1s.44771525 1 1 1z"/><path id="Shape" d="m5 34h2c.55228475 0 1-.4477153 1-1s-.44771525-1-1-1h-2c-.55228475 0-1 .4477153-1 1s.44771525 1 1 1z"/><path id="Shape" d="m5 39h2c.55228475 0 1-.4477153 1-1s-.44771525-1-1-1h-2c-.55228475 0-1 .4477153-1 1s.44771525 1 1 1z"/><path id="Shape" d="m5 44h2c.55228475 0 1-.4477153 1-1s-.44771525-1-1-1h-2c-.55228475 0-1 .4477153-1 1s.44771525 1 1 1z"/><path id="Shape" d="m5 49h2c.55228475 0 1-.4477153 1-1s-.44771525-1-1-1h-2c-.55228475 0-1 .4477153-1 1s.44771525 1 1 1z"/><path id="Shape" d="m5 54h2c.55228475 0 1-.4477153 1-1s-.44771525-1-1-1h-2c-.55228475 0-1 .4477153-1 1s.44771525 1 1 1z"/><path id="Shape" d="m10 18c0 .5522847.4477153 1 1 1h14c.5522847 0 1-.4477153 1-1s-.4477153-1-1-1h-14c-.5522847 0-1 .4477153-1 1z"/><path id="Shape" d="m11 24h11c.5522847 0 1-.4477153 1-1s-.4477153-1-1-1h-11c-.5522847 0-1 .4477153-1 1s.4477153 1 1 1z"/><path id="Shape" d="m11 29h19c.5522847 0 1-.4477153 1-1s-.4477153-1-1-1h-19c-.5522847 0-1 .4477153-1 1s.4477153 1 1 1z"/><path id="Shape" d="m37 22h-11c-.5522847 0-1 .4477153-1 1s.4477153 1 1 1h11c.5522847 0 1-.4477153 1-1s-.4477153-1-1-1z"/><path id="Shape" d="m39 27h-5c-.5522847 0-1 .4477153-1 1s.4477153 1 1 1h5c.5522847 0 1-.4477153 1-1s-.4477153-1-1-1z"/><path id="Shape" d="m11 34h7c.5522847 0 1-.4477153 1-1s-.4477153-1-1-1h-7c-.5522847 0-1 .4477153-1 1s.4477153 1 1 1z"/><path id="Shape" d="m11 39h12c.5522847 0 1-.4477153 1-1s-.4477153-1-1-1h-12c-.5522847 0-1 .4477153-1 1s.4477153 1 1 1z"/><path id="Shape" d="m11 44h19c.5522847 0 1-.4477153 1-1s-.4477153-1-1-1h-19c-.5522847 0-1 .4477153-1 1s.4477153 1 1 1z"/><path id="Shape" d="m11 49h5c.5522847 0 1-.4477153 1-1s-.4477153-1-1-1h-5c-.5522847 0-1 .4477153-1 1s.4477153 1 1 1z"/><path id="Shape" d="m11 54h10c.5522847 0 1-.4477153 1-1s-.4477153-1-1-1h-10c-.5522847 0-1 .4477153-1 1s.4477153 1 1 1z"/><path id="Shape" d="m32 32h-10c-.5522847 0-1 .4477153-1 1s.4477153 1 1 1h10c.5522847 0 1-.4477153 1-1s-.4477153-1-1-1z"/><path id="Shape" d="m40 33c0-.5522847-.4477153-1-1-1h-3c-.5522847 0-1 .4477153-1 1s.4477153 1 1 1h3c.5522847 0 1-.4477153 1-1z"/><path id="Shape" d="m38 43c0-.5522847-.4477153-1-1-1h-3c-.5522847 0-1 .4477153-1 1s.4477153 1 1 1h3c.5522847 0 1-.4477153 1-1z"/><path id="Shape" d="m19 48c0 .5522847.4477153 1 1 1h15c.5522847 0 1-.4477153 1-1s-.4477153-1-1-1h-15c-.5522847 0-1 .4477153-1 1z"/></g></g></g></g></svg>